<?xml version="1.0" encoding="utf-8"?>
<!-- Generator: Adobe Illustrator 27.5.0, SVG Export Plug-In . SVG Version: 6.00 Build 0)  -->
<svg version="1.1" xmlns="http://www.w3.org/2000/svg" xmlns:xlink="http://www.w3.org/1999/xlink" x="0px" y="0px"
	 viewBox="0 0 500 500" style="enable-background:new 0 0 500 500;" xml:space="preserve">
<g id="BACKGROUND">
	<rect style="fill:#FFFFFF;" width="500" height="500"/>
</g>
<g id="OBJECTS">
	<g>
		
			<ellipse transform="matrix(0.9675 -0.2527 0.2527 0.9675 -68.2828 86.1021)" style="fill:#AAA5BA;" cx="301.036" cy="308.862" rx="157.297" ry="146.937"/>
		
			<ellipse transform="matrix(0.5912 -0.8066 0.8066 0.5912 -8.3567 430.9728)" style="fill:#AAA5BA;" cx="420.93" cy="223.729" rx="104.905" ry="38.652"/>
	</g>
	<g>
		<path style="fill:#AAA5BA;" d="M79.486,425.137c-10.179,3.145-17.547,12.344-16.456,20.546
			c1.091,8.202,10.227,12.302,20.406,9.158c10.179-3.145,17.547-12.344,16.456-20.546C98.802,426.092,89.665,421.992,79.486,425.137
			z"/>
		<g>
			<path style="fill:#AAA5BA;" d="M60.172,97.899c-8.239,3.536-9.85,13.602-3.6,22.482s17.996,13.212,26.235,9.675
				c8.239-3.536,9.85-13.602,3.6-22.482C80.157,98.694,68.411,94.362,60.172,97.899z"/>
			<g>
				<path style="fill:#591808;" d="M80.433,103.393c6.251,8.88,4.639,18.946-3.6,22.482c-8.239,3.536-19.984-0.795-26.235-9.675
					c-6.251-8.88-4.639-18.945,3.6-22.482C62.437,90.181,74.183,94.513,80.433,103.393z"/>
				<path style="fill:#D2845E;" d="M67.564,107.954c1.745,1.707,2.071,3.459,0.729,3.913c-1.342,0.454-3.845-0.561-5.59-2.268
					c-1.745-1.707-2.071-3.459-0.729-3.913C63.316,105.231,65.819,106.247,67.564,107.954z"/>
				<path style="fill:#D2845E;" d="M59.3,97.251c2.331-1.146,4.909-1.635,7.522-1.567c-3.851-1.227-7.824-1.288-11.144,0.138
					c-7.161,3.074-8.562,11.823-3.129,19.541c0.066,0.094,0.142,0.181,0.21,0.274C50.012,108.287,52.509,100.589,59.3,97.251z"/>
				<g>
					<path style="fill:#2E0700;" d="M74.24,112.081c1.964,2.044,3.547,4.02,4.785,5.88c-0.465-2.897-2.044-6.201-4.787-9.512
						c-6.31-7.615-16.445-12.532-23.487-11.624C58.145,99.114,67.4,104.962,74.24,112.081z"/>
					<path style="fill:#2E0700;" d="M54.54,120.871c0.049,0.037,0.099,0.071,0.148,0.107
						C54.639,120.942,54.589,120.908,54.54,120.871z"/>
				</g>
				<path style="fill:#2E0700;" d="M78.673,104.866c2.849,7.101,0.902,13.652-5.502,15.972c-5.552,2.011-12.995,0.32-19.335-3.851
					c5.967,6.429,15.168,9.48,21.703,6.85C82.591,121,83.907,112.61,78.673,104.866z"/>
			</g>
		</g>
		<g>
			<ellipse style="fill:#AAA5BA;" cx="103.739" cy="459.23" rx="20.692" ry="15.094"/>
			<g>
				<ellipse style="fill:#591808;" cx="98.312" cy="453.803" rx="20.692" ry="15.094"/>
				<path style="fill:#2E0700;" d="M98.312,449.258c8.143,0,15.328,1.835,19.62,4.633c-2.591-3.96-10.395-6.837-19.62-6.837
					s-17.028,2.877-19.62,6.837C82.983,451.093,90.168,449.258,98.312,449.258z"/>
				<path style="fill:#D2845E;" d="M98.312,441.897c7.542,0,14.155,2.89,17.882,7.233c-2.629-5.352-9.641-9.181-17.882-9.181
					c-8.241,0-15.253,3.829-17.882,9.181C84.157,444.787,90.77,441.897,98.312,441.897z"/>
				<path style="fill:#2E0700;" d="M98.312,461.335c-8.205,0-15.341-1.018-18.992-5.265c1.556,5.723,9.464,10.08,18.992,10.08
					s17.437-4.357,18.992-10.08C113.653,460.316,106.517,461.335,98.312,461.335z"/>
				<g>
					<path style="fill:#D2845E;" d="M96.129,452.01c0.155,1.034-2.522,2.292-5.978,2.81c-3.457,0.518-6.384,0.1-6.539-0.934
						c-0.155-1.034,2.521-2.292,5.978-2.81C93.046,450.558,95.974,450.976,96.129,452.01z"/>
				</g>
			</g>
		</g>
		<g>
			
				<ellipse transform="matrix(0.9848 -0.1739 0.1739 0.9848 -29.9169 14.6244)" style="fill:#AAA5BA;" cx="68.503" cy="178.047" rx="20.692" ry="15.094"/>
			<g>
				
					<ellipse transform="matrix(0.9848 -0.1739 0.1739 0.9848 -29.2477 13.464)" style="fill:#591808;" cx="62.214" cy="173.646" rx="20.692" ry="15.094"/>
				<path style="fill:#2E0700;" d="M61.424,169.17c8.019-1.416,15.414-0.858,20.126,1.15c-3.241-3.449-11.425-4.925-20.51-3.321
					c-9.084,1.604-16.269,5.794-18.132,10.145C46.648,173.643,53.405,170.586,61.424,169.17z"/>
				<path style="fill:#D2845E;" d="M60.144,161.922c7.427-1.311,14.442,0.385,18.867,4.013c-3.519-4.813-11.091-7.365-19.206-5.932
					c-8.115,1.433-14.355,6.423-16.013,12.15C46.708,167.229,52.717,163.233,60.144,161.922z"/>
				<path style="fill:#2E0700;" d="M63.524,181.063c-8.08,1.427-15.284,1.665-19.618-1.882c2.527,5.365,11.072,8.28,20.456,6.623
					c9.383-1.657,16.413-7.322,16.95-13.229C78.454,177.393,71.604,179.636,63.524,181.063z"/>
				<g>
					<path style="fill:#D2845E;" d="M59.753,172.26c0.332,0.991-2.085,2.696-5.398,3.807c-3.314,1.111-6.27,1.208-6.602,0.217
						c-0.332-0.991,2.085-2.695,5.398-3.807C56.465,171.366,59.421,171.269,59.753,172.26z"/>
				</g>
			</g>
		</g>
		<g>
			<ellipse style="fill:#AAA5BA;" cx="468.694" cy="285.959" rx="20.692" ry="15.094"/>
			<g>
				<ellipse style="fill:#591808;" cx="463.267" cy="280.532" rx="20.692" ry="15.094"/>
				<path style="fill:#2E0700;" d="M463.267,275.986c8.143,0,15.328,1.835,19.62,4.633c-2.591-3.96-10.395-6.837-19.62-6.837
					c-9.225,0-17.028,2.877-19.62,6.837C447.939,277.821,455.124,275.986,463.267,275.986z"/>
				<path style="fill:#D2845E;" d="M463.267,268.625c7.542,0,14.155,2.89,17.882,7.233c-2.629-5.352-9.641-9.181-17.882-9.181
					c-8.241,0-15.253,3.829-17.882,9.181C449.112,271.515,455.725,268.625,463.267,268.625z"/>
				<path style="fill:#2E0700;" d="M463.267,288.063c-8.206,0-15.341-1.018-18.992-5.265c1.556,5.723,9.464,10.08,18.992,10.08
					c9.528,0,17.437-4.357,18.992-10.08C478.608,287.045,471.472,288.063,463.267,288.063z"/>
				<g>
					<path style="fill:#D2845E;" d="M461.084,278.738c0.155,1.034-2.522,2.292-5.978,2.81c-3.457,0.518-6.384,0.1-6.539-0.934
						c-0.155-1.034,2.522-2.292,5.978-2.81C458.002,277.286,460.929,277.704,461.084,278.738z"/>
				</g>
			</g>
		</g>
		<g>
			
				<ellipse transform="matrix(0.7288 -0.6848 0.6848 0.7288 -100.2214 382.8827)" style="fill:#AAA5BA;" cx="433.204" cy="317.951" rx="15.327" ry="20.377"/>
			<g>
				
					<ellipse transform="matrix(0.7288 -0.6848 0.6848 0.7288 -98.0895 377.9512)" style="fill:#591808;" cx="428.048" cy="312.795" rx="15.327" ry="20.377"/>
				<path style="fill:#D2845E;" d="M430.386,311.337c1.422,1.984,1.438,3.766,0.037,3.98c-1.401,0.214-3.689-1.221-5.111-3.206
					c-1.422-1.984-1.438-3.766-0.037-3.98C426.676,307.917,428.964,309.353,430.386,311.337z"/>
				<path style="fill:#D2845E;" d="M424.109,299.36c2.495-0.723,5.118-0.756,7.68-0.235c-3.579-1.878-7.481-2.629-10.998-1.803
					c-7.587,1.782-10.488,10.154-6.479,18.7c0.049,0.105,0.108,0.203,0.159,0.306C413.043,308.613,416.841,301.467,424.109,299.36z"
					/>
				<g>
					<path style="fill:#2E0700;" d="M436.243,316.562c1.579,2.355,2.794,4.575,3.689,6.623c0.046-2.933-0.934-6.462-3.06-10.199
						c-4.89-8.596-14.016-15.201-21.108-15.531C422.647,300.994,430.744,308.362,436.243,316.562z"/>
					<path style="fill:#2E0700;" d="M415.314,321.793c0.042,0.045,0.085,0.087,0.127,0.131
						C415.399,321.88,415.356,321.838,415.314,321.793z"/>
				</g>
				<path style="fill:#2E0700;" d="M441.862,310.228c1.571,7.488-1.486,13.601-8.195,14.772c-5.817,1.015-12.853-1.945-18.371-7.154
					c4.758,7.368,13.288,11.973,20.181,10.52C442.915,326.798,445.67,318.765,441.862,310.228z"/>
			</g>
		</g>
		<g>
			<path style="fill:#AAA5BA;" d="M36.079,306.858c-8.728,2.05-12.066,11.682-7.454,21.513c4.611,9.832,15.425,16.14,24.153,14.09
				c8.728-2.05,12.066-11.682,7.454-21.513C55.621,311.116,44.808,304.808,36.079,306.858z"/>
			<g>
				
					<ellipse transform="matrix(0.7288 -0.6848 0.6848 0.7288 -208.1328 113.5536)" style="fill:#591808;" cx="39.273" cy="319.503" rx="15.327" ry="20.377"/>
				<path style="fill:#D2845E;" d="M41.61,318.045c1.422,1.984,1.438,3.766,0.037,3.98c-1.401,0.214-3.689-1.221-5.111-3.206
					c-1.422-1.984-1.438-3.766-0.037-3.98C37.901,314.625,40.189,316.06,41.61,318.045z"/>
				<path style="fill:#D2845E;" d="M35.333,306.068c2.495-0.723,5.118-0.756,7.68-0.235c-3.579-1.878-7.481-2.629-10.998-1.803
					c-7.587,1.782-10.487,10.154-6.479,18.7c0.049,0.105,0.108,0.203,0.159,0.306C24.267,315.321,28.066,308.175,35.333,306.068z"/>
				<g>
					<path style="fill:#2E0700;" d="M47.467,323.27c1.579,2.355,2.794,4.575,3.69,6.623c0.046-2.933-0.934-6.462-3.06-10.199
						c-4.89-8.596-14.016-15.201-21.108-15.531C33.871,307.702,41.969,315.07,47.467,323.27z"/>
					<path style="fill:#2E0700;" d="M26.539,328.501c0.042,0.045,0.085,0.087,0.127,0.131
						C26.624,328.587,26.58,328.546,26.539,328.501z"/>
				</g>
				<path style="fill:#2E0700;" d="M53.087,316.935c1.571,7.488-1.486,13.601-8.196,14.772c-5.817,1.015-12.853-1.945-18.371-7.154
					c4.758,7.368,13.288,11.973,20.181,10.52C54.139,333.505,56.894,325.473,53.087,316.935z"/>
			</g>
		</g>
		<g>
			
				<ellipse transform="matrix(0.771 -0.6368 0.6368 0.771 35.7176 189.4155)" style="fill:#AAA5BA;" cx="281.262" cy="45.038" rx="19.658" ry="14.497"/>
			<g>
				<path style="fill:#591808;" d="M293.972,33.111c2.501,7.888-3.155,18.228-12.633,23.095c-9.477,4.867-19.187,2.418-21.688-5.47
					c-2.501-7.888,3.155-18.228,12.633-23.095C281.761,22.774,291.471,25.223,293.972,33.111z"/>
				<path style="fill:#D2845E;" d="M276.575,40.604c0.141,1.343-1.56,3.882-3.8,5.672c-2.24,1.79-4.17,2.153-4.311,0.81
					c-0.141-1.343,1.56-3.882,3.8-5.672C274.504,39.624,276.434,39.262,276.575,40.604z"/>
				<path style="fill:#2E0700;" d="M281.708,31.867c1.96-1.207,3.883-2.234,5.75-3.095c-3.044,0.335-6.359,1.387-9.701,3.212
					c-7.738,4.227-13.446,11.403-15.117,18.146C266.856,43.556,273.702,36.797,281.708,31.867z"/>
				<path style="fill:#D2845E;" d="M262.414,50.522c0.558-6.693,6.391-14.696,14.553-19.276c2.965-1.664,5.886-2.676,8.563-3.079
					c-3.551-1.253-8.114-0.867-12.62,1.447c-8.168,4.195-13.042,13.106-10.887,19.904C262.133,49.868,262.271,50.198,262.414,50.522
					z"/>
				<path style="fill:#2E0700;" d="M291.734,32.908c-0.535-1.858-1.569-3.331-2.946-4.42c0.119,0.305,0.238,0.609,0.328,0.937
					c1.948,7.143-3.912,16.968-13.089,21.944c-4.359,2.363-8.672,3.191-12.219,2.66c3.707,2.769,9.815,2.791,15.952-0.48
					C288.339,48.978,293.7,39.736,291.734,32.908z"/>
			</g>
		</g>
		<g>
			<path style="fill:#AAA5BA;" d="M483.386,406.185c-1.091-8.203-10.227-12.302-20.406-9.158
				c-10.179,3.145-17.547,12.344-16.456,20.546c1.091,8.202,10.227,12.302,20.406,9.158
				C477.109,423.586,484.477,414.387,483.386,406.185z"/>
			<g>
				
					<ellipse transform="matrix(0.87 -0.493 0.493 0.87 -141.2316 280.3635)" style="fill:#591808;" cx="461.113" cy="408.038" rx="19.658" ry="14.497"/>
				<path style="fill:#D2845E;" d="M461.11,406.697c-0.094,1.347-2.211,3.552-4.728,4.925c-2.517,1.373-4.481,1.395-4.386,0.048
					c0.095-1.347,2.212-3.552,4.728-4.925C459.241,405.372,461.204,405.351,461.11,406.697z"/>
				<path style="fill:#2E0700;" d="M467.684,398.985c2.14-0.848,4.213-1.525,6.2-2.048c-3.055-0.2-6.504,0.26-10.112,1.477
					c-8.355,2.817-15.224,8.891-18.042,15.24C451.026,407.914,458.943,402.448,467.684,398.985z"/>
				<path style="fill:#D2845E;" d="M445.44,414.002c1.714-6.494,8.849-13.361,17.683-16.452c3.209-1.123,6.262-1.611,8.968-1.543
					c-3.279-1.851-7.839-2.265-12.68-0.769c-8.773,2.71-15.122,10.638-14.182,17.707
					C445.277,413.309,445.355,413.657,445.44,414.002z"/>
				<path style="fill:#2E0700;" d="M477.376,401.754c-0.204-1.922-0.966-3.553-2.133-4.865c0.064,0.321,0.129,0.641,0.16,0.98
					c0.676,7.373-6.803,16.029-16.705,19.334c-4.703,1.569-9.095,1.634-12.496,0.495c3.169,3.371,9.18,4.455,15.793,2.301
					C471.238,416.989,478.125,408.82,477.376,401.754z"/>
			</g>
		</g>
		<g>
			
				<ellipse transform="matrix(0.87 -0.493 0.493 0.87 -204.9335 94.9539)" style="fill:#591808;" cx="77.62" cy="436.148" rx="19.658" ry="14.497"/>
			<path style="fill:#D2845E;" d="M77.617,434.808c-0.094,1.347-2.212,3.552-4.728,4.925c-2.517,1.373-4.481,1.395-4.386,0.048
				c0.095-1.347,2.212-3.552,4.728-4.925C75.747,433.482,77.711,433.461,77.617,434.808z"/>
			<path style="fill:#2E0700;" d="M84.19,427.095c2.14-0.848,4.213-1.525,6.2-2.048c-3.055-0.2-6.504,0.26-10.112,1.477
				c-8.355,2.817-15.224,8.891-18.042,15.241C67.533,436.024,75.45,430.558,84.19,427.095z"/>
			<path style="fill:#D2845E;" d="M61.946,442.112c1.714-6.494,8.849-13.361,17.683-16.452c3.209-1.123,6.262-1.612,8.968-1.543
				c-3.279-1.851-7.839-2.265-12.68-0.769c-8.773,2.71-15.122,10.638-14.182,17.707C61.784,441.419,61.862,441.767,61.946,442.112z"
				/>
			<path style="fill:#2E0700;" d="M93.883,429.864c-0.204-1.922-0.966-3.553-2.133-4.866c0.064,0.321,0.129,0.641,0.16,0.98
				c0.676,7.373-6.803,16.03-16.705,19.334c-4.703,1.57-9.095,1.634-12.495,0.495c3.169,3.371,9.18,4.455,15.792,2.301
				C87.745,445.099,94.631,436.931,93.883,429.864z"/>
		</g>
	</g>
	<g>
		<g>
			<path style="fill:#FEE7C5;" d="M404.376,50.965c-43.316,20.132-71.553,71.856-64.569,111.473
				c6.255,35.478,39.237,49.356,74.72,34.007c36.031-15.587,66.551-57.761,67.774-97.706
				C483.673,53.98,448.513,30.451,404.376,50.965z M466.588,117.607c1.418,22.295-14.611,48.305-35.451,59.192
				c-20.546,10.733-39.91,3.671-43.716-16.744c-4.055-21.747,10.821-50.578,33.799-63.255
				C444.567,83.919,465.075,93.815,466.588,117.607z"/>
			<path style="fill:#FFFFFF;" d="M373.149,85.611c0,0,30.52-42.561,78.907-33.606c0,0-40.128,7.434-64.104,45.465L373.149,85.611z"
				/>
			<path style="fill:#FEC470;" d="M386.77,153.725c-0.236-9.362,2.53-19.541,7.55-28.948c-10.846-16.057-25.711-26.388-36.783-32.39
				c-4.714,7.149-8.647,14.698-11.673,22.393L386.77,153.725z"/>
			<path style="fill:#FEC470;" d="M433.898,91.947c1.274,3.16,2.144,6.691,2.547,10.563c2.442,23.499-13.168,50.752-34.439,62.067
				c-3.934,2.092-7.821,3.526-11.574,4.346c7.045,13.362,23.398,16.918,40.706,7.876c20.84-10.887,36.869-36.897,35.451-59.192
				C465.365,98.374,451.672,88.19,433.898,91.947z"/>
			<path style="fill:#E59B4F;" d="M433.898,91.947c1.274,3.16,2.145,6.691,2.547,10.563c0.889,8.558-0.625,17.613-3.926,26.216
				c14.054-2.356,24.843-0.829,32.984,2.255c0.964-4.506,1.363-9.011,1.086-13.374C465.365,98.374,451.672,88.19,433.898,91.947z"/>
		</g>
		<g>
			
				<ellipse transform="matrix(0.9675 -0.2527 0.2527 0.9675 -59.7608 73.0404)" style="fill:#FEC470;" cx="254.437" cy="269.145" rx="171.129" ry="161.315"/>
			
				<ellipse transform="matrix(0.9675 -0.2527 0.2527 0.9675 -53.5643 69.9203)" style="fill:#FEE7C5;" cx="245.389" cy="243.465" rx="182.202" ry="171.753"/>
			
				<ellipse transform="matrix(0.9675 -0.2527 0.2527 0.9675 -53.9044 70.8074)" style="fill:#FFFFFF;" cx="248.683" cy="245.24" rx="166.243" ry="154.837"/>
			<path style="fill:#FFFFFF;" d="M78.156,289.775C55.347,202.453,111.969,111.776,204.375,87.64
				c67.757-17.698,136.226,5.222,176.925,53.134c-39.356-52.03-110.41-77.741-180.721-59.376
				C109.091,105.295,52.986,194.899,75.512,281.14c0.93,3.56,1.991,7.053,3.155,10.49C78.497,291.011,78.318,290.397,78.156,289.775
				z"/>
		</g>
		
			<ellipse transform="matrix(0.9675 -0.2527 0.2527 0.9675 -53.5625 69.9171)" style="fill:#591808;" cx="245.39" cy="243.465" rx="163.505" ry="152.287"/>
		<g>
			<path style="fill:#360700;" d="M206.904,96.121C119.534,118.942,65.937,203.41,87.192,284.786
				c6.811,26.074,20.488,48.659,38.794,66.573c-7.432-12.948-12.835-27.038-16.715-41.432c-7.674-28.465-9.207-60.125,1.074-88.434
				c7.292-20.08,22.388-35.797,40.988-45.919c17.822-9.699,38.278-12.078,57.119-19.054c10.039-3.717,18.749-9.746,27.846-15.332
				c9.529-5.85,17.828-12.964,28.335-17.203c13.854-5.59,29.028-8.063,43.548-4.604c48.678,11.599,82.966,48.654,89.807,65.77
				C369.673,114.317,287.997,74.939,206.904,96.121z"/>
			<g>
				<path style="fill:#360700;" d="M281.556,372.626c73.66-19.24,118.846-90.453,100.926-159.059
					c-6.199-23.734-19.142-44.043-36.466-59.665c11.315,19.205,18.172,41.055,18.818,63.341
					c1.263,43.602-21.438,85.708-55.469,110.68c-34.032,24.972-78.13,33.518-119.935,27.506c-10.335-1.486-20.53-3.818-30.532-6.889
					C191.355,374.018,236.563,384.378,281.556,372.626z"/>
			</g>
		</g>
		<g>
			<g>
				<path style="fill:#DA9B7C;" d="M263.853,115.055c9.114-1.936,18.377-2.654,26.856-2.099
					c22.148,1.451,44.544,10.334,62.108,23.829c22.269,17.111,39.446,39.951,50.794,65.45c-0.008-0.031-0.015-0.061-0.023-0.091
					C382.332,120.768,294.274,73.3,206.904,96.121C119.534,118.942,65.937,203.41,87.192,284.786
					c7.306,27.971,22.505,51.936,42.856,70.418c-6.583-7.921-12.171-16.268-16.074-24.93
					c-10.759-23.879-18.209-53.342-16.092-79.613c2.985-37.05,24.853-75.433,61.863-87.175c12.531-3.976,25.45-5.788,37.461-11.336
					c11.52-5.321,20.888-13.233,30.699-21.082C237.66,123.263,250.599,117.871,263.853,115.055z"/>
				<path style="fill:#D2845E;" d="M378.081,156.026c-6.086-7.484-13.054-14.246-20.652-20.185
					c-10.371-8.107-21.949-14.718-34.272-19.362c-11.804-4.448-25.425-8.066-38.085-8.118c-13.534-0.055-27.403,1.937-40.13,6.987
					c-13.369,5.304-26.013,13.7-37.368,22.433c-4.872,3.746-11.27,6.19-16.932,8.597c-6.192,2.632-12.509,4.952-18.815,7.292
					c-3.866,1.435-7.685,3.003-11.431,4.727c-34.538,15.897-54.453,45.375-62.511,81.99c-7.438,33.798-2.76,71.449,20.471,98.309
					c-0.65-1.113-1.273-2.231-1.872-3.356c-0.212-0.396-0.423-0.793-0.628-1.19c-0.201-0.392-0.4-0.784-0.595-1.178
					c-0.445-0.897-0.879-1.796-1.287-2.7c-10.759-23.879-18.208-53.342-16.092-79.613c1.529-18.977,6.911-37.504,17.917-52.681
					c10.482-15.878,25.287-28.574,43.946-34.495c12.531-3.976,25.45-5.788,37.461-11.336c11.52-5.321,20.888-13.233,30.699-21.082
					c9.755-7.803,22.694-13.196,35.947-16.012c5.617-1.193,11.29-1.92,16.802-2.175c0.075-0.004,0.149-0.01,0.224-0.014
					c0.017-0.001,0.034-0.001,0.051-0.002c2.124-0.107,4.271-0.12,6.429-0.058c0.193,0.005,0.383,0.015,0.576,0.022
					c0.768,0.027,1.537,0.06,2.307,0.107c0.154,0.009,0.312,0.012,0.466,0.022c0.246,0.016,0.493,0.046,0.739,0.064
					c0.749,0.056,1.499,0.12,2.251,0.194c19.31,1.842,38.623,9.226,54.602,20.297c0.03,0.021,0.061,0.042,0.091,0.063
					c0.59,0.409,1.177,0.821,1.757,1.24c0.907,0.65,1.801,1.306,2.667,1.972c1.261,0.969,2.501,1.962,3.729,2.967
					c0.393,0.322,0.781,0.65,1.171,0.976c0.839,0.701,1.672,1.409,2.496,2.127c0.437,0.38,0.872,0.761,1.304,1.146
					c0.806,0.718,1.602,1.446,2.393,2.18c0.389,0.36,0.782,0.716,1.167,1.08c1.079,1.022,2.145,2.058,3.194,3.109
					c0.475,0.475,0.938,0.961,1.406,1.442c0.604,0.62,1.208,1.241,1.802,1.871c0.559,0.592,1.111,1.191,1.662,1.791
					c0.472,0.516,0.941,1.035,1.406,1.557c0.595,0.666,1.189,1.334,1.773,2.009c0.326,0.377,0.644,0.761,0.967,1.141
					c2.261,2.664,4.436,5.398,6.526,8.197c0.17,0.228,0.342,0.456,0.511,0.685c0.715,0.969,1.421,1.944,2.116,2.927
					c0.08,0.113,0.158,0.226,0.237,0.339c3.073,4.371,5.942,8.886,8.603,13.524C390.787,175.089,385.246,164.836,378.081,156.026z"
					/>
				<path style="fill:#D2845E;" d="M314.793,102.859c-32.496-13.346-70.254-16.568-107.889-6.738
					C121.761,118.36,68.705,199.142,85.724,278.555c0.986-13.938-7.845-76.89,64.722-139.215
					C223.012,77.015,302.881,100.205,314.793,102.859z"/>
			</g>
			<g>
				<g>
					
						<ellipse transform="matrix(0.9675 -0.2527 0.2527 0.9675 -29.0054 52.1078)" style="fill:#591808;" cx="188.345" cy="138.968" rx="15.445" ry="11.945"/>
					<path style="fill:#FEEED6;" d="M185.079,135.039c0.478,1.829-1.052,3.813-3.417,4.431c-2.365,0.618-4.67-0.364-5.147-2.194
						c-0.478-1.829,1.052-3.813,3.417-4.43C182.297,132.228,184.601,133.21,185.079,135.039z"/>
				</g>
				<g>
					<g>
						
							<ellipse transform="matrix(0.9675 -0.2527 0.2527 0.9675 -20.93 60.8222)" style="fill:#591808;" cx="226.302" cy="111.887" rx="14.199" ry="9.816"/>
						<path style="fill:#FEEED6;" d="M225.467,108.69c0.461,1.765-1.235,3.737-3.789,4.405c-2.554,0.667-4.998-0.223-5.459-1.989
							c-0.461-1.766,1.235-3.738,3.789-4.405C222.562,106.034,225.006,106.925,225.467,108.69z"/>
					</g>
					<path style="fill:#591808;" d="M220.338,120.488c0.604,2.311-1.617,4.892-4.96,5.765c-3.343,0.873-6.542-0.292-7.145-2.603
						c-0.604-2.311,1.617-4.892,4.96-5.765C216.536,117.012,219.735,118.177,220.338,120.488z"/>
				</g>
				<g>
					<path style="fill:#591808;" d="M166.721,148.037c0.478,1.828-1.776,4.001-5.035,4.852c-3.258,0.851-6.287,0.059-6.764-1.77
						c-0.477-1.828,1.777-4,5.035-4.852C163.215,145.417,166.244,146.209,166.721,148.037z"/>
					<path style="fill:#FEEED6;" d="M159.659,148.512c0.137,0.524-0.509,1.146-1.443,1.39c-0.934,0.244-1.801,0.017-1.938-0.507
						c-0.137-0.524,0.509-1.146,1.443-1.39C158.654,147.761,159.522,147.988,159.659,148.512z"/>
				</g>
				<g>
					<path style="fill:#591808;" d="M143.032,164.393c1.065,4.077-2.853,8.631-8.751,10.172c-5.898,1.541-11.543-0.516-12.607-4.593
						c-1.065-4.077,2.853-8.631,8.751-10.172C136.323,158.26,141.967,160.316,143.032,164.393z"/>
					<path style="fill:#FEEED6;" d="M131.704,164.698c0.358,1.372-0.96,2.905-2.946,3.424c-1.985,0.518-3.885-0.174-4.244-1.546
						c-0.358-1.372,0.96-2.905,2.946-3.424C129.446,162.633,131.346,163.326,131.704,164.698z"/>
				</g>
				<g>
					<path style="fill:#591808;" d="M306.638,104.099c0.672,2.575-1.802,5.45-5.526,6.423c-3.725,0.973-7.289-0.326-7.961-2.9
						c-0.673-2.575,1.802-5.45,5.526-6.423C302.401,100.226,305.966,101.525,306.638,104.099z"/>
					<path style="fill:#FEEED6;" d="M300.264,104.48c0.252,0.966-0.676,2.046-2.074,2.411c-1.398,0.365-2.736-0.122-2.988-1.089
						c-0.252-0.966,0.676-2.045,2.074-2.411C298.674,103.027,300.012,103.514,300.264,104.48z"/>
				</g>
				<path style="fill:#591808;" d="M150.977,135.724c0.719,2.754-1.927,5.83-5.911,6.87c-3.984,1.041-7.796-0.348-8.516-3.102
					c-0.719-2.754,1.927-5.83,5.911-6.87C146.446,131.582,150.258,132.971,150.977,135.724z"/>
				<path style="fill:#591808;" d="M112.3,196.639c0.511,1.957-1.37,4.144-4.201,4.883c-2.832,0.74-5.542-0.248-6.053-2.205
					s1.37-4.144,4.201-4.883C109.079,193.694,111.789,194.681,112.3,196.639z"/>
				<path style="fill:#591808;" d="M99.333,238.127c0.756,2.893-2.024,6.124-6.209,7.217c-4.185,1.093-8.19-0.366-8.945-3.259
					s2.024-6.124,6.209-7.217C94.573,233.775,98.578,235.234,99.333,238.127z"/>
				<path style="fill:#591808;" d="M388.582,164.857c0.375,1.435-1.004,3.037-3.079,3.579c-2.076,0.542-4.062-0.182-4.436-1.616
					c-0.375-1.435,1.004-3.037,3.079-3.579C386.222,162.699,388.208,163.422,388.582,164.857z"/>
				<path style="fill:#591808;" d="M379.734,156.69c0.235,0.899-0.629,1.903-1.929,2.242c-1.3,0.34-2.544-0.114-2.779-1.012
					c-0.235-0.899,0.629-1.903,1.929-2.242C378.255,155.338,379.499,155.791,379.734,156.69z"/>
				<path style="fill:#591808;" d="M368.409,140.436c0.235,0.899-0.629,1.903-1.929,2.242c-1.3,0.34-2.544-0.114-2.779-1.012
					c-0.235-0.899,0.629-1.903,1.929-2.242C366.93,139.084,368.175,139.537,368.409,140.436z"/>
				<path style="fill:#591808;" d="M364.827,141.052c0.138,0.527-0.369,1.116-1.132,1.315c-0.763,0.199-1.493-0.067-1.63-0.594
					c-0.138-0.527,0.369-1.116,1.132-1.315C363.96,140.259,364.689,140.525,364.827,141.052z"/>
				<path style="fill:#591808;" d="M102.854,294.436c0.467,1.787-1.251,3.784-3.836,4.459c-2.586,0.675-5.06-0.226-5.527-2.013
					c-0.467-1.787,1.251-3.784,3.836-4.459C99.913,291.747,102.387,292.649,102.854,294.436z"/>
				<path style="fill:#591808;" d="M118.369,169.909c0.592,2.266-1.586,4.797-4.864,5.653c-3.278,0.856-6.415-0.287-7.007-2.553
					c-0.592-2.266,1.586-4.797,4.864-5.653C114.64,166.5,117.777,167.643,118.369,169.909z"/>
				<path style="fill:#591808;" d="M259.188,111.513c0.592,2.266-1.586,4.797-4.864,5.653c-3.278,0.856-6.415-0.287-7.007-2.553
					c-0.592-2.266,1.586-4.797,4.864-5.653C255.459,108.105,258.596,109.248,259.188,111.513z"/>
				<path style="fill:#591808;" d="M324.991,112.238c0.497,1.901-1.33,4.025-4.081,4.743c-2.75,0.718-5.383-0.241-5.879-2.142
					c-0.497-1.901,1.33-4.025,4.081-4.743C321.862,109.378,324.494,110.336,324.991,112.238z"/>
				<path style="fill:#591808;" d="M330,113.863c0.327,1.253-0.877,2.652-2.689,3.125c-1.812,0.473-3.546-0.159-3.874-1.411
					c-0.327-1.253,0.876-2.652,2.689-3.125C327.939,111.978,329.673,112.61,330,113.863z"/>
				<path style="fill:#591808;" d="M335.542,117.787c0.519,1.986-1.39,4.205-4.263,4.955c-2.873,0.75-5.623-0.251-6.142-2.238
					c-0.519-1.986,1.39-4.205,4.263-4.955C332.274,114.799,335.024,115.801,335.542,117.787z"/>
				<path style="fill:#591808;" d="M353.044,129.568c0.382,1.464-1.025,3.099-3.142,3.653c-2.118,0.553-4.145-0.185-4.527-1.649
					c-0.382-1.464,1.024-3.099,3.142-3.653C350.635,127.366,352.662,128.104,353.044,129.568z"/>
				<path style="fill:#591808;" d="M362.022,133.95c0.255,0.978-0.684,2.07-2.099,2.44c-1.415,0.369-2.769-0.124-3.024-1.102
					c-0.255-0.978,0.684-2.07,2.099-2.44C360.413,132.479,361.767,132.972,362.022,133.95z"/>
				<path style="fill:#591808;" d="M348.254,122.863c0.159,0.609-0.426,1.289-1.307,1.519c-0.881,0.23-1.724-0.077-1.883-0.686
					c-0.159-0.609,0.426-1.289,1.307-1.519C347.252,121.947,348.095,122.254,348.254,122.863z"/>
				<path style="fill:#591808;" d="M102.009,291.2c0.307,1.174-0.821,2.485-2.519,2.928c-1.698,0.443-3.323-0.148-3.63-1.322
					c-0.307-1.174,0.821-2.485,2.519-2.928C100.077,289.434,101.702,290.026,102.009,291.2z"/>
				<path style="fill:#591808;" d="M92.574,277.991c0.215,0.822-0.575,1.741-1.765,2.051c-1.19,0.311-2.328-0.104-2.543-0.926
					c-0.215-0.822,0.575-1.741,1.765-2.051C91.221,276.754,92.359,277.169,92.574,277.991z"/>
				<path style="fill:#591808;" d="M112.575,321.351c0.279,1.068-0.747,2.26-2.292,2.664c-1.545,0.404-3.023-0.135-3.302-1.203
					s0.747-2.26,2.292-2.664C110.818,319.744,112.296,320.283,112.575,321.351z"/>
				<path style="fill:#591808;" d="M102.043,314.076c0.169,0.646-0.452,1.367-1.386,1.612c-0.934,0.244-1.829-0.082-1.998-0.728
					s0.452-1.367,1.387-1.612C100.98,313.104,101.874,313.43,102.043,314.076z"/>
				<path style="fill:#591808;" d="M119.143,337.246c0.169,0.646-0.452,1.368-1.387,1.612c-0.934,0.244-1.829-0.082-1.998-0.728
					c-0.169-0.646,0.452-1.368,1.387-1.612C118.08,336.274,118.974,336.6,119.143,337.246z"/>
				<path style="fill:#591808;" d="M105.241,311.152c0.282,1.08-0.756,2.286-2.318,2.694c-1.562,0.408-3.057-0.137-3.34-1.217
					c-0.282-1.08,0.756-2.286,2.318-2.694C103.464,309.527,104.959,310.072,105.241,311.152z"/>
				<path style="fill:#591808;" d="M97.22,267.826c0.148,0.567-0.396,1.2-1.216,1.414c-0.82,0.214-1.604-0.072-1.752-0.638
					c-0.148-0.567,0.396-1.2,1.216-1.414C96.288,266.973,97.072,267.259,97.22,267.826z"/>
				<g>
					<path style="fill:#591808;" d="M284.027,105.026c0.902,3.455-2.417,7.314-7.415,8.619c-4.998,1.306-9.781-0.437-10.683-3.892
						c-0.902-3.455,2.418-7.314,7.415-8.619C278.341,99.828,283.124,101.571,284.027,105.026z"/>
					<path style="fill:#FEEED6;" d="M275.036,105.222c0.257,0.983-0.972,2.155-2.745,2.618c-1.772,0.463-3.418,0.041-3.674-0.942
						c-0.257-0.983,0.972-2.155,2.745-2.618C273.134,103.817,274.78,104.239,275.036,105.222z"/>
				</g>
				<path style="fill:#591808;" d="M197.311,107.649c0.54,2.067-1.446,4.375-4.436,5.156c-2.99,0.781-5.851-0.261-6.39-2.328
					c-0.54-2.067,1.446-4.375,4.436-5.156C193.911,104.54,196.772,105.582,197.311,107.649z"/>
				<path style="fill:#591808;" d="M168.841,122.154c0.481,1.84-1.288,3.896-3.95,4.591c-2.662,0.695-5.21-0.233-5.69-2.073
					c-0.481-1.84,1.288-3.896,3.95-4.591C165.813,119.386,168.361,120.314,168.841,122.154z"/>
				<path style="fill:#591808;" d="M171.014,118.95c0.281,1.076-0.753,2.277-2.308,2.683c-1.556,0.406-3.045-0.136-3.326-1.212
					c-0.281-1.075,0.753-2.277,2.309-2.683C169.244,117.332,170.733,117.874,171.014,118.95z"/>
				<g>
					<path style="fill:#591808;" d="M108.679,203.745c0.876,3.353-2.346,7.098-7.196,8.364c-4.85,1.267-9.492-0.424-10.368-3.777
						c-0.876-3.353,2.346-7.098,7.196-8.365C103.162,198.701,107.804,200.392,108.679,203.745z"/>
					<path style="fill:#FEEED6;" d="M98.534,203.127c0.204,0.78-0.669,1.684-1.95,2.018c-1.281,0.335-2.484-0.027-2.688-0.807
						c-0.204-0.78,0.669-1.684,1.95-2.018C97.126,201.986,98.33,202.347,98.534,203.127z"/>
				</g>
			</g>
		</g>
	</g>
	<g>
		<path style="fill:#FEEED6;" d="M320.074,179.446c0.056-0.133,0.076-0.283,0.034-0.438c-0.207-0.766-0.928-1.452-1.414-2.068
			c-0.544-0.69-1.1-1.371-1.667-2.043c-0.982-1.163-2.012-2.282-3.066-3.38c0.938-1.013,1.838-2.059,2.666-3.165
			c0.78-1.042,1.556-2.14,2.151-3.312c0.014,0,0.028,0,0.042,0c0.816-0.014,0.854-1.171,0.13-1.317
			c-0.172-0.117-0.4-0.147-0.572-0.033c-6.475-0.099-12.958-0.025-19.433-0.025c-6.536,0.001-13.071,0.001-19.607,0.001
			c-13.161,0.001-26.322-0.028-39.482,0.008c-3.671,0.01-7.342-0.003-11.012,0.038c-1.88,0.021-3.76,0.042-5.64,0.062
			c-1.793,0.02-3.597-0.009-5.381,0.182c-0.083-0.044-0.164-0.098-0.249-0.135c-0.444-0.19-1.064,0.234-0.736,0.736
			c0.445,0.68,1.124,1.206,1.702,1.77c0.612,0.599,1.23,1.19,1.828,1.804c1.013,1.039,1.997,2.102,2.949,3.196
			c-2.393,2.578-4.78,5.161-7.164,7.748c-0.729,0.791,0.452,1.977,1.183,1.183c0.001-0.002,0.003-0.003,0.004-0.005
			c1.455,0.217,2.926,0.236,4.4,0.241c1.656,0.006,3.312,0.012,4.967,0.017c3.357,0.012,6.713,0.044,10.069,0.046
			c6.668,0.003,13.336,0.006,20.004,0.01c13.381,0.006,26.762,0.049,40.143,0.075c3.759,0.007,7.518,0.018,11.278,0.022
			c3.76,0.004,7.522,0.059,11.278-0.118C320.122,180.52,320.314,179.87,320.074,179.446z"/>
		<text transform="matrix(1 0 0 1 173.5495 216.8255)" style="fill:#FEEED6; font-family:'Satisfy-Regular'; font-size:69.8101px;">Day</text>
		<g>
			<text transform="matrix(1 0 0 1 139.317 299.761)" style="fill:#FEEED6; font-family:'Satisfy-Regular'; font-size:90.8787px;">Coffee</text>
		</g>
		<g>
			
				<text transform="matrix(1 0 0 1 284.9323 218.5198)" style="fill:#FEEED6; font-family:'Satisfy-Regular'; font-size:69.8101px;">of</text>
		</g>
		<text transform="matrix(1 0 0 1 228.4635 175.6892)" style="fill:#591808; font-family:'Poppins-Medium'; font-size:10.0865px;">INTERNATIONAL</text>
	</g>
</g>
</svg>
